<?xml version="1.0" encoding="UTF-8" standalone="no"?>
<!-- Created with Inkscape (http://www.inkscape.org/) -->

<svg
   xmlns:dc="http://purl.org/dc/elements/1.1/"
   xmlns:cc="http://creativecommons.org/ns#"
   xmlns:rdf="http://www.w3.org/1999/02/22-rdf-syntax-ns#"
   xmlns:svg="http://www.w3.org/2000/svg"
   xmlns="http://www.w3.org/2000/svg"
   xmlns:xlink="http://www.w3.org/1999/xlink"
   xmlns:sodipodi="http://sodipodi.sourceforge.net/DTD/sodipodi-0.dtd"
   xmlns:inkscape="http://www.inkscape.org/namespaces/inkscape"
   width="200mm"
   height="200mm"
   viewBox="0 0 200 200"
   version="1.1"
   id="svg8"
   inkscape:version="0.92.4 (5da689c313, 2019-01-14)"
   sodipodi:docname="SendByLAN_f.svg">
  <defs
     id="defs2">
    <linearGradient
       gradientUnits="userSpaceOnUse"
       gradientTransform="scale(1.0801234,0.9258201)"
       id="linearGradient877"
       x1="19.442222"
       x2="19.442222"
       y1="-3.5495666e-14"
       y2="14.763645">
      <stop
         id="stop875"
         stop-color="#2E5DFF"
         offset="-99"
         style="stop-color:#2e1fff;stop-opacity:1" />
      <stop
         id="stop873"
         stop-color="#00B8FF"
         offset="1"
         style="stop-color:#00a5ff;stop-opacity:1" />
    </linearGradient>
    <radialGradient
       gradientTransform="matrix(.06171 .99538 -.63989 .096 .47 -.498)"
       fy="0%"
       fx="50%"
       r="117.613%"
       cy="0%"
       cx="50%"
       id="radialGradient1078">
      <stop
         offset="-99"
         stop-color="#0083F6"
         id="stop1076"
         style="stop-color:#008bf6;stop-opacity:1" />
      <stop
         offset="1"
         stop-color="#48D5FF"
         id="stop1074"
         style="stop-color:#23f5ff;stop-opacity:1" />
    </radialGradient>
    <radialGradient
       id="folder-remote-48px-i"
       cx="50%"
       cy="0%"
       r="117.613%"
       fx="50%"
       fy="0%"
       gradientTransform="matrix(.06171 .99538 -.63989 .096 .47 -.498)">
      <stop
         offset="0%"
         stop-color="#48D5FF"
         id="stop1069"
         style="stop-color:#23f3ff;stop-opacity:1" />
      <stop
         offset="100%"
         stop-color="#0083F6"
         id="stop1071"
         style="stop-color:#00b7f6;stop-opacity:1" />
    </radialGradient>
    <linearGradient
       y2="14.763645"
       y1="-3.5495666e-14"
       x2="19.442222"
       x1="19.442222"
       id="linearGradient1005"
       gradientTransform="scale(1.0801234,0.9258201)"
       gradientUnits="userSpaceOnUse">
      <stop
         offset="-99"
         stop-color="#2E5DFF"
         id="stop1003"
         style="stop-color:#ffeeaa;stop-opacity:1" />
      <stop
         offset="1"
         stop-color="#00B8FF"
         id="stop1001"
         style="stop-color:#ffdd55;stop-opacity:1" />
    </linearGradient>
    <linearGradient
       gradientUnits="userSpaceOnUse"
       gradientTransform="scale(1.0801234,0.9258201)"
       id="linearGradient176"
       x1="19.442222"
       x2="19.442222"
       y1="-3.5495666e-14"
       y2="14.763645">
      <stop
         offset="0%"
         stop-color="#00B8FF"
         id="stop172"
         style="stop-color:#ffcc00;stop-opacity:1" />
      <stop
         offset="100%"
         stop-color="#2E5DFF"
         id="stop174"
         style="stop-color:#fff6d5;stop-opacity:1" />
    </linearGradient>
    <filter
       filterUnits="objectBoundingBox"
       y="-18.1%"
       x="-15.5%"
       height="136.1%"
       width="131%"
       id="folder-remote-48px-a">
      <feOffset
         id="feOffset29"
         result="shadowOffsetOuter1"
         in="SourceAlpha"
         dy="1" />
      <feGaussianBlur
         id="feGaussianBlur31"
         stdDeviation="1"
         result="shadowBlurOuter1"
         in="shadowOffsetOuter1" />
      <feComposite
         id="feComposite33"
         result="shadowBlurOuter1"
         operator="out"
         in2="SourceAlpha"
         in="shadowBlurOuter1" />
      <feColorMatrix
         id="feColorMatrix35"
         values="0 0 0 0 0   0 0 0 0 0   0 0 0 0 0  0 0 0 0.2 0"
         result="shadowMatrixOuter1"
         in="shadowBlurOuter1" />
      <feMerge
         id="feMerge41">
        <feMergeNode
           id="feMergeNode37"
           in="shadowMatrixOuter1" />
        <feMergeNode
           id="feMergeNode39"
           in="SourceGraphic" />
      </feMerge>
    </filter>
    <linearGradient
       y2="14.763645"
       y1="-3.5495666e-14"
       x2="19.442222"
       x1="19.442222"
       id="folder-remote-48px-c"
       gradientTransform="scale(1.0801234,0.9258201)"
       gradientUnits="userSpaceOnUse">
      <stop
         id="stop44"
         stop-color="#00B8FF"
         offset="0" />
      <stop
         id="stop46"
         stop-color="#2E5DFF"
         offset="100" />
    </linearGradient>
    <path
       d="M24,2.5 L24,2.5 C24.6039656,4.00991389 26.0663554,5 27.6925824,5 L36.8288288,5 C39.6847878,5 42,7.31521219 42,10.1711712 L42,30.8288288 C42,33.6847878 39.6847878,36 36.8288288,36 L5.17117117,36 C2.31521219,36 -4.13946316e-14,33.6847878 -4.17443857e-14,30.8288288 L-4.35207426e-14,5.17117117 C-4.38704967e-14,2.31521219 2.31521219,-3.23379704e-14 5.17117117,-3.28626015e-14 L20.3074176,-3.10862447e-14 C21.9336446,-3.13849777e-14 23.3960344,0.990086111 24,2.5 Z"
       id="folder-remote-48px-b" />
    <linearGradient
       y2="13.826576"
       y1="10.917959"
       x2="13.626599"
       x1="13.626599"
       id="folder-remote-48px-g"
       gradientTransform="scale(1.5411035,0.64888568)"
       gradientUnits="userSpaceOnUse">
      <stop
         id="stop50"
         stop-color="#FFF"
         offset="0%" />
      <stop
         id="stop52"
         stop-color="#CEF5FF"
         offset="100%" />
    </linearGradient>
    <path
       d="M5.32432432,7.08450704 L36.6756757,7.08450704 C38.5116493,7.08450704 40,8.57285774 40,10.4088314 L40,19.7601827 C40,21.5961563 38.5116493,23.084507 36.6756757,23.084507 L5.32432432,23.084507 C3.4883507,23.084507 2,21.5961563 2,19.7601827 L2,10.4088314 C2,8.57285774 3.4883507,7.08450704 5.32432432,7.08450704 Z"
       id="folder-remote-48px-f" />
    <filter
       filterUnits="objectBoundingBox"
       y="-9.5%"
       x="-3.9%"
       height="120.9%"
       width="107.9%"
       id="folder-remote-48px-e">
      <feOffset
         id="feOffset56"
         result="shadowOffsetOuter1"
         in="SourceAlpha" />
      <feGaussianBlur
         id="feGaussianBlur58"
         stdDeviation=".5"
         result="shadowBlurOuter1"
         in="shadowOffsetOuter1" />
      <feColorMatrix
         id="feColorMatrix60"
         values="0 0 0 0 0   0 0 0 0 0   0 0 0 0 0  0 0 0 0.2 0"
         in="shadowBlurOuter1" />
    </filter>
    <filter
       filterUnits="objectBoundingBox"
       y="-9.5%"
       x="-3.9%"
       height="120.9%"
       width="107.9%"
       id="folder-remote-48px-h">
      <feOffset
         id="feOffset63"
         result="shadowOffsetInner1"
         in="SourceAlpha"
         dy="1" />
      <feComposite
         id="feComposite65"
         result="shadowInnerInner1"
         operator="arithmetic"
         k3="1"
         k2="-1"
         in2="SourceAlpha"
         in="shadowOffsetInner1" />
      <feColorMatrix
         id="feColorMatrix67"
         values="0 0 0 0 1   0 0 0 0 1   0 0 0 0 1  0 0 0 0.5 0"
         in="shadowInnerInner1" />
    </filter>
    <radialGradient
       gradientTransform="matrix(.06171 .99538 -.63989 .096 .47 -.498)"
       fy="0%"
       fx="50%"
       r="117.613%"
       cy="0%"
       cx="50%"
       id="folder-remote-48px-i-7">
      <stop
         id="stop70"
         stop-color="#48D5FF"
         offset="0%" />
      <stop
         id="stop72"
         stop-color="#0083F6"
         offset="100%" />
    </radialGradient>
    <linearGradient
       inkscape:collect="always"
       xlink:href="#linearGradient877"
       id="linearGradient170"
       x1="74.992035"
       y1="65.178932"
       x2="74.568199"
       y2="27.878426"
       gradientUnits="userSpaceOnUse" />
    <radialGradient
       inkscape:collect="always"
       xlink:href="#folder-remote-48px-c"
       id="radialGradient999"
       cx="97.586975"
       cy="79.369423"
       fx="97.586975"
       fy="79.369423"
       r="71.519562"
       gradientTransform="matrix(1.2743497,0,0,0.87717802,-22.238433,27.275541)"
       gradientUnits="userSpaceOnUse" />
    <filter
       style="color-interpolation-filters:sRGB;"
       inkscape:label="Drop Shadow"
       id="filter1308">
      <feFlood
         flood-opacity="0.239216"
         flood-color="rgb(0,0,0)"
         result="flood"
         id="feFlood1298" />
      <feComposite
         in="flood"
         in2="SourceGraphic"
         operator="in"
         result="composite1"
         id="feComposite1300" />
      <feGaussianBlur
         in="composite1"
         stdDeviation="6.6"
         result="blur"
         id="feGaussianBlur1302" />
      <feOffset
         dx="0"
         dy="0"
         result="offset"
         id="feOffset1304" />
      <feComposite
         in="SourceGraphic"
         in2="offset"
         operator="over"
         result="composite2"
         id="feComposite1306" />
    </filter>
  </defs>
  <sodipodi:namedview
     id="base"
     pagecolor="#ffffff"
     bordercolor="#666666"
     borderopacity="1.0"
     inkscape:pageopacity="0.0"
     inkscape:pageshadow="2"
     inkscape:zoom="0.49497475"
     inkscape:cx="461.4774"
     inkscape:cy="353.6014"
     inkscape:document-units="mm"
     inkscape:current-layer="layer6"
     showgrid="false"
     inkscape:window-width="1920"
     inkscape:window-height="1040"
     inkscape:window-x="0"
     inkscape:window-y="0"
     inkscape:window-maximized="1" />
  <metadata
     id="metadata5">
    <rdf:RDF>
      <cc:Work
         rdf:about="">
        <dc:format>image/svg+xml</dc:format>
        <dc:type
           rdf:resource="http://purl.org/dc/dcmitype/StillImage" />
        <dc:title></dc:title>
      </cc:Work>
    </rdf:RDF>
  </metadata>
  <g
     inkscape:groupmode="layer"
     id="layer2"
     inkscape:label="Layer 2"
     style="display:inline">
    <path
       style="fill:url(#linearGradient170);fill-opacity:1.0;stroke:none;stroke-width:0.26458332px;stroke-linecap:butt;stroke-linejoin:miter;stroke-opacity:1"
       d="m 41.426775,27.74479 52.251194,-0.400905 c 0,0 0.768832,-0.079 2.70596,0.582454 1.937126,0.661459 4.771951,1.937129 6.425591,4.110493 1.65365,2.173361 2.59859,3.921503 3.59078,6.66183 0.99218,2.740326 4.44122,6.52009 6.37834,7.276041 1.93713,0.755952 2.97657,1.606399 6.33111,1.559153 3.35453,-0.04725 30.66331,-0.330729 30.66331,-0.330729 0,0 2.00262,-0.01447 3.94032,0.520059 1.93771,0.534541 4.00905,1.637028 5.04472,2.305201 1.03567,0.668174 3.60814,3.073598 4.54358,4.309721 0.93544,1.236123 2.50565,4.309721 3.00678,5.646068 0.50113,1.336347 1.03567,3.708366 1.23612,5.278573 0.20045,1.570209 0.16705,3.040192 0.16705,3.608138 0,0.56795 0.46772,81.984933 0.46772,81.984933 0,0 -0.0334,1.63702 -0.16705,3.17382 -0.13363,1.5368 -0.73499,3.64155 -1.43657,5.67948 -0.70158,2.03793 -2.20497,4.40995 -3.00678,5.51243 -0.80181,1.10249 -3.40769,3.47451 -5.04471,4.47677 -1.63703,1.00226 -4.07586,1.77066 -5.04472,1.97111 -0.96885,0.20045 -4.91107,0.26727 -5.91334,0.30068 -1.00226,0.0334 -18.14091,0.10022 -18.14091,0.10022 l -88.509347,0.5264 c 0,0 -2.295477,0.14178 -5.369076,-1.46184 -3.073601,-1.60362 -6.080381,-4.67722 -7.283095,-6.5481 -1.202711,-1.87089 -3.274051,-6.41447 -3.541321,-9.62171 -0.26727,-3.20723 -0.334087,-42.09495 -0.334087,-42.09495 L 23.98744,46.92138 c 0,0 0.334087,-4.009044 1.403165,-6.481286 1.069077,-2.472243 2.271791,-4.810853 3.207233,-6.013564 0.935445,-1.202714 4.075862,-4.409948 7.349914,-5.545844 3.274052,-1.135896 5.479023,-1.135896 5.479023,-1.135896 z"
       id="path168"
       inkscape:connector-curvature="0"
       transform="matrix(1.2639454,0,0,1.1498648,-21.619011,-12.843896)" />
  </g>
  <g
     inkscape:groupmode="layer"
     id="layer4"
     inkscape:label="Layer 4">
    <rect
       style="fill:#e9ffff;fill-opacity:1;stroke-width:0.27323991"
       id="rect1014"
       width="128.92548"
       height="27.271078"
       x="34.21386"
       y="51.986828"
       rx="5.3000002"
       ry="5.8451562" />
  </g>
  <g
     inkscape:groupmode="layer"
     id="layer3"
     inkscape:label="Layer 3">
    <rect
       style="fill:url(#radialGradient999);fill-opacity:1.0;stroke-width:0.35209858"
       id="rect186"
       width="182.28189"
       height="125.47076"
       x="9.0538769"
       y="60.424572"
       rx="24.594952" />
  </g>
  <g
     inkscape:groupmode="layer"
     id="layer6"
     inkscape:label="Layer 6">
    <path
       style="fill:#2b229c;fill-opacity:0.50549453;stroke:none;stroke-width:0.28398517px;stroke-linecap:butt;stroke-linejoin:miter;stroke-opacity:1"
       d="m 36.071611,91.772732 c 0,0 16.391449,-1.107022 18.147667,-0.492011 1.756217,0.615031 2.759785,2.214045 2.592525,3.813081 -0.167263,1.599056 -1.505335,4.674111 -2.17438,6.642138 -0.669045,1.96804 -1.338073,3.32107 -0.669045,5.41209 0.669045,2.09105 2.676162,3.32109 4.265136,3.69009 1.588953,0.369 5.770454,0.61501 6.85763,-0.49201 1.087192,-1.10703 2.676156,-2.09102 2.59253,-4.67407 -0.08363,-2.58306 -2.258002,-4.55111 -3.010675,-7.134147 -0.752656,-2.583064 -1.672597,-4.428116 -0.167251,-6.765161 1.505337,-2.337043 20.907431,-2.091046 20.907431,-2.091046 0,0 -0.334519,23.370474 0.250902,25.338504 0.585405,1.96807 1.505329,3.44409 2.843407,2.21407 1.338078,-1.23003 3.010667,-5.78113 5.519575,-5.53513 2.5089,0.24602 3.93057,3.81308 4.43237,7.01114 0.50177,3.1981 2.341627,9.34823 1.42172,13.28429 -0.91995,3.93609 -2.75978,4.5511 -5.68685,3.81307 -2.927025,-0.738 -3.846958,-3.19803 -5.519555,-2.21402 -1.672589,0.984 -2.843415,2.09105 -3.261569,4.92009 -0.418145,2.82905 0.08363,19.3114 0.08363,19.3114 l -19.318468,2.82905 c 0,0 -1.756215,0.123 -2.759773,-2.46003 -1.003567,-2.58306 0.334511,-6.27315 2.341628,-8.61019 2.007116,-2.33705 2.927024,-7.62616 -0.585397,-10.33221 -3.512457,-2.70606 -8.195725,-1.72202 -9.701075,-0.73802 -1.505318,0.98403 -3.596074,2.82905 -4.432365,5.7811 -0.836305,2.95208 1.170813,5.65814 1.338074,7.38018 0.167261,1.72204 1.923479,4.55111 -0.250883,7.13415 -2.174397,2.58306 -5.017803,2.46006 -6.104993,2.46006 -1.087173,0 -9.951934,-0.24601 -9.951934,-0.24601 l -0.50178,-25.95355 c 0,0 -0.585406,-4.05908 -2.592522,-1.84503 -2.00712,2.21405 -5.519571,5.78113 -6.60676,5.2891 -1.08719,-0.49202 -3.596076,-4.18208 -3.763336,-8.48718 -0.167262,-4.30509 0.919927,-10.82423 2.425261,-12.91527 1.505336,-2.09106 3.930598,0.61502 5.519571,2.33703 1.588957,1.72206 4.097858,5.04314 5.435931,-0.24599 1.33809,-5.2891 0.08366,-27.429558 0.08366,-27.429558 z"
       id="path1065"
       inkscape:connector-curvature="0" />
  </g>
  <g
     inkscape:groupmode="layer"
     id="layer5"
     inkscape:label="Layer 5">
    <path
       id="path96-6"
       d="m 144.69552,142.93841 c -2.17535,-2.43653 -5.73452,-2.35027 -7.94963,0.19275 -2.2151,2.54295 -2.24734,6.57961 -0.0719,9.01617 2.17536,2.43651 5.73452,2.35025 7.94964,-0.19275 2.2151,-2.54297 2.24733,-6.57964 0.0721,-9.01617 z m 31.19173,-36.31405 c -9.74808,-8.986106 -22.24009,-14.348696 -35.83128,-14.263936 -13.46567,0.084 -25.78814,5.5013 -35.38925,14.458356 m 61.96293,12.92918 c -7.25466,-6.51738 -16.4699,-10.39147 -26.47948,-10.32907 -9.84587,0.0612 -18.87745,3.92175 -25.99961,10.33648 m 43.28529,12.86601 c -4.72751,-3.98381 -10.60977,-6.32927 -16.97332,-6.2896 -6.30309,0.0393 -12.10588,2.41262 -16.7627,6.38603"
       inkscape:connector-curvature="0"
       style="fill:none;fill-rule:evenodd;stroke:#ffffff;stroke-width:3.99158454;stroke-linecap:round;stroke-linejoin:round" />
  </g>
</svg>
